<svg xmlns="http://www.w3.org/2000/svg" xmlns:xlink="http://www.w3.org/1999/xlink" width="265" height="177" viewBox="0 0 265 177">
  <metadata><?xpacket begin="﻿" id="W5M0MpCehiHzreSzNTczkc9d"?>
<x:xmpmeta xmlns:x="adobe:ns:meta/" x:xmptk="Adobe XMP Core 5.6-c142 79.160924, 2017/07/13-01:06:39        ">
   <rdf:RDF xmlns:rdf="http://www.w3.org/1999/02/22-rdf-syntax-ns#">
      <rdf:Description rdf:about=""/>
   </rdf:RDF>
</x:xmpmeta>
                                                                                                    
                                                                                                    
                                                                                                    
                                                                                                    
                                                                                                    
                                                                                                    
                                                                                                    
                                                                                                    
                                                                                                    
                                                                                                    
                                                                                                    
                                                                                                    
                                                                                                    
                                                                                                    
                                                                                                    
                                                                                                    
                                                                                                    
                                                                                                    
                                                                                                    
                                                                                                    
                           
<?xpacket end="w"?></metadata>
<defs>
    <style>
      .cls-1 {
        fill: #ff3f00;
      }

      .cls-2 {
        filter: url(#filter);
      }

      .cls-3 {
        fill-rule: evenodd;
      }
    </style>
    <filter id="filter" x="22" y="21" width="221" height="135" filterUnits="userSpaceOnUse">
      <feFlood result="flood" flood-color="#ff3f00"/>
      <feComposite result="composite" operator="in" in2="SourceGraphic"/>
      <feBlend result="blend" in2="SourceGraphic"/>
    </filter>
  </defs>
  <rect class="cls-1" width="265" height="177"/>
  <rect x="10" y="10" width="245" height="157"/>
  <rect id="Rectangle_1_copy" data-name="Rectangle 1 copy" class="cls-2" x="22" y="21" width="221" height="135"/>
  <path id="Kā_copy_2" data-name="Kā? copy 2" class="cls-3" d="M63.426,129.3V109.836l7.45-10.575,17.3,30.041h22.59L82.892,82.92,106.2,51.2H83.613L63.907,80.276H63.426V51.2H42.759v78.1H63.426Zm77.683-.541a33.61,33.61,0,0,0,7.63-5.227h0.481l1.441,5.768h16.823V95.9q0-14.78-6.669-21.449t-18.324-6.669a44.967,44.967,0,0,0-13.579,2.043,59.48,59.48,0,0,0-12.857,5.888l7.21,13.458a59.136,59.136,0,0,1,8.291-3.785,20.738,20.738,0,0,1,6.849-1.262q7.689,0,8.411,6.248-17.3,1.8-24.993,7.15a16.969,16.969,0,0,0-7.69,14.72,20.911,20.911,0,0,0,1.2,7.089,16.878,16.878,0,0,0,3.545,5.888,17.282,17.282,0,0,0,5.708,4.025,18.37,18.37,0,0,0,7.57,1.5A19.986,19.986,0,0,0,141.109,128.761Zm-7.27-18.2q0-2.523,2.764-4.686t10.213-3.244V110.8a21.662,21.662,0,0,1-3.3,2.944,7.033,7.033,0,0,1-4.146,1.141q-5.528,0-5.527-4.326h0Zm28-51.909V45.67H124.827V58.647h37.009Zm43.619,41.335a11.427,11.427,0,0,1,.781-5.888,21.978,21.978,0,0,1,2.944-4.927,45.8,45.8,0,0,1,4.025-4.446,43.842,43.842,0,0,0,4.086-4.566,27.639,27.639,0,0,0,3.184-5.227A14.992,14.992,0,0,0,221.8,68.5a22.913,22.913,0,0,0-1.863-9.673,17.39,17.39,0,0,0-5.107-6.549,21.594,21.594,0,0,0-7.57-3.725,34.49,34.49,0,0,0-9.252-1.2,28.581,28.581,0,0,0-13.278,3.124,35.585,35.585,0,0,0-10.514,8.171l11.3,10.334a40.478,40.478,0,0,1,4.566-3.6,9.314,9.314,0,0,1,5.287-1.442,8.1,8.1,0,0,1,4.747,1.382q1.983,1.383,1.982,4.626a6.683,6.683,0,0,1-1.261,3.785,39.022,39.022,0,0,1-3.064,3.905q-1.8,2.045-3.906,4.326a30.555,30.555,0,0,0-3.725,4.987,22.418,22.418,0,0,0-2.463,5.948,17.343,17.343,0,0,0-.24,7.09h18.024Zm-0.481,27.157a13.431,13.431,0,0,0,0-17.784,12.184,12.184,0,0,0-17.3,0,13.434,13.434,0,0,0,0,17.784A12.186,12.186,0,0,0,204.974,127.139Z"/>
</svg>
