<svg xmlns="http://www.w3.org/2000/svg" xmlns:xlink="http://www.w3.org/1999/xlink" width="385" height="177" viewBox="0 0 385 177">
  <metadata><?xpacket begin="﻿" id="W5M0MpCehiHzreSzNTczkc9d"?>
<x:xmpmeta xmlns:x="adobe:ns:meta/" x:xmptk="Adobe XMP Core 5.6-c142 79.160924, 2017/07/13-01:06:39        ">
   <rdf:RDF xmlns:rdf="http://www.w3.org/1999/02/22-rdf-syntax-ns#">
      <rdf:Description rdf:about=""/>
   </rdf:RDF>
</x:xmpmeta>
                                                                                                    
                                                                                                    
                                                                                                    
                                                                                                    
                                                                                                    
                                                                                                    
                                                                                                    
                                                                                                    
                                                                                                    
                                                                                                    
                                                                                                    
                                                                                                    
                                                                                                    
                                                                                                    
                                                                                                    
                                                                                                    
                                                                                                    
                                                                                                    
                                                                                                    
                                                                                                    
                           
<?xpacket end="w"?></metadata>
<defs>
    <style>
      .cls-1 {
        fill: #00b666;
        filter: url(#filter);
      }

      .cls-1, .cls-2, .cls-3 {
        stroke: #000;
        stroke-linejoin: round;
      }

      .cls-1, .cls-3 {
        stroke-width: 5px;
      }

      .cls-2 {
        fill: #fff;
        stroke-width: 6px;
        filter: url(#filter-2);
      }

      .cls-2, .cls-3 {
        fill-rule: evenodd;
      }

      .cls-3 {
        fill: #ff3f00;
        filter: url(#filter-3);
      }
    </style>
    <filter id="filter" x="241" y="21" width="135" height="136" filterUnits="userSpaceOnUse">
      <feOffset result="offset" dx="4.95" dy="4.95" in="SourceAlpha"/>
      <feGaussianBlur result="blur"/>
      <feFlood result="flood"/>
      <feComposite result="composite" operator="in" in2="blur"/>
      <feBlend result="blend" in="SourceGraphic"/>
      <feFlood result="flood-2" flood-color="#ff3f00"/>
      <feComposite result="composite-2" operator="in" in2="SourceGraphic"/>
      <feBlend result="blend-2" in2="blend"/>
    </filter>
    <filter id="filter-2" x="264.75" y="9" width="94.25" height="166" filterUnits="userSpaceOnUse">
      <feOffset result="offset" dx="6.364" dy="6.364" in="SourceAlpha"/>
      <feGaussianBlur result="blur"/>
      <feFlood result="flood"/>
      <feComposite result="composite" operator="in" in2="blur"/>
      <feBlend result="blend" in="SourceGraphic"/>
      <feFlood result="flood-2" flood-color="#fff"/>
      <feComposite result="composite-2" operator="in" in2="SourceGraphic"/>
      <feBlend result="blend-2" in2="blend"/>
    </filter>
    <filter id="filter-3" x="5.219" y="1.75" width="217.781" height="158.25" filterUnits="userSpaceOnUse">
      <feOffset result="offset" dx="6.364" dy="6.364" in="SourceAlpha"/>
      <feGaussianBlur result="blur"/>
      <feFlood result="flood"/>
      <feComposite result="composite" operator="in" in2="blur"/>
      <feBlend result="blend" in="SourceGraphic"/>
    </filter>
  </defs>
  <g style="fill: #00b666; filter: url(#filter)">
    <circle id="Ellipse_1_copy" data-name="Ellipse 1 copy" class="cls-1" cx="308.5" cy="88.953" r="62.5" style="stroke: inherit; filter: none; fill: inherit"/>
  </g>
  <use xlink:href="#Ellipse_1_copy" style="stroke: #000; filter: none; fill: none"/>
  <g style="fill: #fff; filter: url(#filter-2)">
    <path id="_" data-name="?" class="cls-2" d="M320.477,112.976a26.75,26.75,0,0,1,1.381-12.334,43.289,43.289,0,0,1,5.642-10.26,98.344,98.344,0,0,1,7.829-9.337q4.258-4.5,8.06-9.337a50.226,50.226,0,0,0,6.332-10.49,30.955,30.955,0,0,0,2.533-12.8,43.075,43.075,0,0,0-3.339-17.637,33.244,33.244,0,0,0-9.21-12.334A38.154,38.154,0,0,0,325.888,11.3,61.415,61.415,0,0,0,308.733,9a53.185,53.185,0,0,0-24.754,5.764,62.944,62.944,0,0,0-19.228,15.216L283.4,47.039a50.6,50.6,0,0,1,9.556-7.608,21.591,21.591,0,0,1,11.4-3q6.908,0,11.168,3.689t4.26,10.836a16.129,16.129,0,0,1-2.418,8.415,60.063,60.063,0,0,1-6.1,8.3q-3.685,4.269-7.714,8.876A65.313,65.313,0,0,0,296.3,86.693a48.677,48.677,0,0,0-4.951,11.989,35.171,35.171,0,0,0-.575,14.294h29.7Zm-0.346,49.914a20.945,20.945,0,0,0,5.872-15.1,21.249,21.249,0,0,0-5.872-15.332,19.463,19.463,0,0,0-14.622-6.109A19.088,19.088,0,0,0,291,132.457a21.482,21.482,0,0,0-5.757,15.332A21.172,21.172,0,0,0,291,162.89,19.085,19.085,0,0,0,305.509,169,19.46,19.46,0,0,0,320.131,162.89Z" style="stroke: inherit; filter: none; fill: inherit"/>
  </g>
  <use xlink:href="#_" style="stroke: #000; filter: none; fill: none"/>
  <g style="fill: #ff3f00; filter: url(#filter-3)">
    <path id="kā" class="cls-3" d="M41.317,151.326V125.539l11.174-12.463,21.489,38.25h39.97l-40.4-62.748L111.8,43.88H71.832L42.177,81.272h-0.86V1.761H5.215V151.326h36.1Zm127.753-.967a60.092,60.092,0,0,0,13.646-9.347h0.859l2.579,10.314h30.085V91.586q0-26.432-11.926-38.358T171.542,41.3a80.407,80.407,0,0,0-24.283,3.653,106.349,106.349,0,0,0-22.994,10.53l12.894,24.068a105.736,105.736,0,0,1,14.827-6.769,37.1,37.1,0,0,1,12.249-2.256q13.75,0,15.043,11.175-30.945,3.223-44.7,12.786t-13.753,26.325a37.36,37.36,0,0,0,2.149,12.678,30.179,30.179,0,0,0,6.339,10.53,30.926,30.926,0,0,0,10.208,7.2,32.858,32.858,0,0,0,13.538,2.686A35.744,35.744,0,0,0,169.07,150.359Zm-13-32.556q0-4.512,4.943-8.381t18.266-5.8v14.613a38.664,38.664,0,0,1-5.91,5.265,12.573,12.573,0,0,1-7.414,2.041q-9.887,0-9.885-7.736h0Zm50.07-92.833V1.761H139.952V24.97h66.187Z" style="stroke: inherit; filter: none; fill: inherit"/>
  </g>
  <use xlink:href="#kā" style="stroke: #000; filter: none; fill: none"/>
</svg>
